<!-- Generator: Adobe Illustrator 18.1.1, SVG Export Plug-In  -->
<svg version="1.1"
	 xmlns="http://www.w3.org/2000/svg" xmlns:xlink="http://www.w3.org/1999/xlink" xmlns:a="http://ns.adobe.com/AdobeSVGViewerExtensions/3.0/"
	 x="0px" y="0px" width="681.667px" height="682.372px" viewBox="0 0 681.667 682.372" enable-background="new 0 0 681.667 682.372"
	 xml:space="preserve">
<defs>
</defs>
<g>
	<path d="M4.935,4.935L9.869,1.41l2.115,0.705c44.168,46.999,89.636,92.467,136.403,136.403
		c46.757,43.948,91.993,89.647,135.699,137.109v7.049l2.819-0.705l4.935,2.115l50.05,50.05l38.066-38.771v-4.23l4.935-2.114
		c47.462-46.525,94.461-93.514,140.986-140.986l2.819,7.754c1.41-2.819,2.115-5.396,2.115-7.754c0-1.872,2.819-6.223,8.459-13.041
		c5.64-6.807,12.688-14.683,21.147-23.615c8.459-8.922,17.854-18.56,28.197-28.902c10.332-10.331,20.322-20.2,29.96-29.606
		c9.626-9.396,18.207-17.733,25.729-25.025c7.512-7.28,12.688-12.336,15.509-15.156l4.935-0.704L676.732,0l4.229,2.115l-2.819,2.819
		l3.524,4.935l-0.705,2.115c-12.688,12.226-25.62,24.088-38.771,35.599c-13.162,11.521-25.851,23.384-38.065,35.599
		c-33.374,33.374-65.801,67.211-97.28,101.51c-31.491,34.311-64.622,67.442-99.396,99.396l-7.049,0.705l0.705,2.819l-2.115,4.935
		l-48.64,49.346c0.462,0.947,1.872,2.356,4.229,4.229c2.346,1.883,4.582,3.998,6.696,6.344c2.115,2.357,4.108,4.582,5.992,6.697
		c1.872,2.114,2.819,3.414,2.819,3.877l-4.229,2.115c5.166,0.946,9.627,3.062,13.394,6.344c3.756,3.294,7.281,6.818,10.574,10.574
		l-2.819,2.114c2.819,0.474,7.754,3.768,14.803,9.869c7.05,6.113,15.267,13.637,24.673,22.558
		c9.396,8.934,19.386,18.802,29.96,29.607c10.573,10.816,20.674,21.147,30.312,31.017c9.627,9.869,18.207,18.681,25.729,26.436
		c7.513,7.754,12.921,13.283,16.214,16.565v8.459l4.935-2.819c24.903,24.441,49.697,48.408,74.37,71.902
		s49.224,47.693,73.665,72.608v0.704l-3.524,6.345c-1.884,1.872-3.768,3.051-5.64,3.524c-0.474-0.474-5.177-5.177-14.099-14.099
		c-8.933-8.933-20.796-20.685-35.599-35.246c-14.804-14.572-31.491-31.248-50.051-50.05c-18.57-18.791-37.834-38.066-57.804-57.805
		c-19.98-19.737-39.598-39.354-58.861-58.861c-19.275-19.496-36.899-37.24-52.87-53.223c-15.982-15.971-29.497-29.485-40.533-40.533
		c-11.048-11.036-17.976-18.207-20.796-21.5l-21.853,21.147l-2.114-4.935c-0.947,5.177-3.062,9.638-6.345,13.394
		c-3.293,3.768-6.818,7.292-10.574,10.574v0.705l-2.114-2.819c-0.474,1.883-3.768,6.233-9.869,13.041
		c-6.113,6.817-13.746,15.046-22.91,24.672c-9.164,9.639-19.275,19.98-30.312,31.018c-11.047,11.048-21.5,21.5-31.369,31.369
		s-18.681,18.57-26.435,26.082c-7.754,7.523-12.81,12.458-15.156,14.804l-8.459,0.705l2.819,4.935L11.984,682.372
		c-3.768-1.884-7.05-4.935-9.869-9.164c0-0.474,4.461-5.177,13.394-14.099c8.922-8.933,20.796-20.686,35.599-35.246
		c14.804-14.572,31.601-31.37,50.402-50.402c18.791-19.033,38.177-38.529,58.157-58.51c19.97-19.969,39.828-39.586,59.566-58.861
		c19.738-19.265,37.593-36.888,53.574-52.87c15.972-15.971,29.486-29.485,40.534-40.533c11.036-11.036,17.976-17.976,20.795-20.795
		c-6.587-6.576-13.162-13.042-19.737-19.386c-6.587-6.345-13.163-12.799-19.738-19.386h-3.524l-2.115-4.935
		c-46.525-47.462-93.524-94.461-140.986-140.986l7.755-2.819c-2.82-1.41-5.64-2.115-8.459-2.115c-1.884,0-6.113-2.819-12.689-8.459
		c-6.586-5.64-14.451-12.688-23.615-21.147c-9.164-8.46-18.802-17.976-28.901-28.55C72.014,83.534,62.266,73.555,52.87,64.148
		c-9.406-9.396-17.744-17.854-25.025-25.377c-7.291-7.512-12.336-12.688-15.155-15.509l-1.41-4.935L0,6.345l1.41-4.229L4.935,4.935z
		 M104.33,579.452l-4.935,2.115H98.69c1.41,0,2.93,0,4.582,0c1.642,0,3.172-0.463,4.582-1.41L104.33,579.452z M156.495,160.02
		l2.819,3.524l2.115-1.41l-0.705-2.819l-3.525-1.41L156.495,160.02z M217.119,460.319l-27.493,26.787l1.41,1.41L217.119,460.319z
		 M203.021,206.545v1.409l14.099,12.688L204.43,205.84L203.021,206.545z M235.447,236.856h2.114l-1.41-2.115h-1.409L235.447,236.856
		z M241.791,241.791v1.41l1.41,0.704h0.705c0-1.409-0.242-2.346-0.705-2.819L241.791,241.791z M269.283,270.693l1.41,0.705v-2.115
		h-1.41V270.693z M283.382,288.316c0.463,0.474,0.705,0.826,0.705,1.058c0,0.242,0.231,0.595,0.705,1.058l0.705-1.41l-0.705-1.41
		h-1.41V288.316z M296.07,293.956l0.705,0.705c0.463,0,0.937-0.231,1.41-0.705l-0.705-1.41h-1.41V293.956z M337.661,346.121
		c-0.474-0.463-0.704-0.937-0.704-1.41c0-0.463-0.474-0.705-1.41-0.705v2.819h1.41L337.661,346.121z M345.416,346.121l-2.115,1.409
		h3.524v-1.409H345.416z M389.121,296.07c-0.474,0.474-0.705,0.947-0.705,1.41l0.705,0.705c0.463,0,0.937-0.231,1.41-0.705v-0.705
		L389.121,296.07z M394.761,283.382c-0.474,0.474-0.826,0.705-1.058,0.705c-0.242,0-0.595,0.242-1.058,0.705l1.41,1.41l1.41-1.41
		v-0.705L394.761,283.382z M413.794,269.283c-0.474,0-1.179,0.474-2.115,1.41h2.115V269.283z M441.286,241.791h-1.41l-0.705,1.41
		l0.705,1.409c0.463-0.462,0.815-0.705,1.058-0.705c0.231,0,0.584-0.23,1.058-0.704L441.286,241.791z M446.221,235.446v1.41
		l0.705,0.705l1.409-0.705v-2.115L446.221,235.446z M476.532,203.725h-1.409l-14.804,14.099l16.918-13.394L476.532,203.725z
		 M460.319,465.959l26.082,27.492l1.41-1.41L460.319,465.959z M523.058,156.494l-3.524,3.525l1.41,1.409l2.819-0.705l1.41-3.524
		L523.058,156.494z M578.747,578.747l2.115,4.935l0.705,0.705c-0.474-1.41-0.705-2.93-0.705-4.582c0-1.641-0.474-3.172-1.41-4.582
		L578.747,578.747z"/>
</g>
</svg>